<svg xmlns="http://www.w3.org/2000/svg" viewBox="0 0 821.54 665.08"><defs><style>.cls-1{fill:#d3d4d8;}.cls-2{fill:#1171b0;}</style></defs><g id="Capa_2" data-name="Capa 2"><g id="Capa_1-2" data-name="Capa 1"><path class="cls-1" d="M384.78,497.73c-20.13-9-40.26-18-59.36-29.1-16.14-9.36-30.18-21.12-41.3-36.23-23.82-32.39-22-67.87,5.05-97.59,20.33-22.34,44.81-38.92,72-51.62,27.61-12.88,56.49-22.1,86.06-29.23,6.77,8.4,12.54,17.36,15.36,27.93-20.73,7.11-32.42,22.18-37.4,42.9-2.19,9.11-2.17,18.35,3.35,26.4a92.47,92.47,0,0,0,42.12,33.64c2.39,1.11,4.72,2.38,7.18,3.31a497.9,497.9,0,0,0,72.78,21.36,571.45,571.45,0,0,0,161.64,10.83c25.52-2,51.09-3.37,76.52-6.38,5.61-.66,11.17-1.67,16.76-2.53,8.49-1.32,12.38,1.82,12.44,10.29,0,6.81,0,13.63-.17,20.45-.23,8.69-2.6,11.36-11.34,12.85-8,1.37-16.08,2.57-24.12,3.86-2.69.44-5.66.92-5.32,4.56s3.13,4.62,6.18,4.37c6.62-.55,13.2-1.58,19.81-2.09,10-.77,13.3,2,14.19,12,1.36,15.3-.9,30.51-1.6,45.76-.22,5-4.2,6.7-8.73,7.29q-33.13,4.29-66.47,6.7c-27.85,2.06-55.76,3.29-83.7,3a979.55,979.55,0,0,1-117.31-8.46c-18.12-2.36-36.23-4.81-54.34-7.22-14.17-2.76-28.42-5.14-42.46-8.64C422.94,511.28,403.82,504.67,384.78,497.73Zm276.28-22.88c9.63,0,19.26,0,28.88,0,3.27,0,5.41-1.44,5.21-5.14-.18-3.43-2.6-3.86-5.23-3.91-24-.5-48.12,1.17-72.12-1.35-2.69-.28-5.16.67-5.4,3.83-.24,3,2.09,3.81,4.51,4.26.66.13,1.33.14,2,.27C632.84,475.49,647,475.06,661.06,474.85ZM476.27,441.66c-2,.11-3,.17-4,.21-2.18.11-3.92.77-4.24,3.28s1.14,3.72,3.11,4.51a29.85,29.85,0,0,0,4.3,1.24c9.18,2.26,18.33,4.66,27.57,6.67,8.75,1.9,17.34,4.68,26.37,5.11,3,.14,6-.48,6.47-4s-2.43-4.22-5.16-4.83q-18-4-35.95-8.06Zm-62.83-15.08c2.89-.06,5.79-.49,6.83-3.72s-2-3.76-3.85-4.89c-5.76-3.6-11.58-7.08-17.43-10.52a70.89,70.89,0,0,0-13.62-6c-3.07-1-5.24.1-6.58,2.8s.61,3.94,2.46,5.19c5.36,3.61,10.65,7.32,16.09,10.8C402.25,423.41,407.48,425.87,413.44,426.58ZM364.18,376c-.07-4.67-2.51-12.28-5.61-17.25-1.1-1.76-1.87-4.13-4.66-3.7s-4.25,2.46-5.12,4.88c-1.45,4,4,18.08,7.58,20.05C360.27,382.1,364.24,380.08,364.18,376Zm5.44-56.14c-.1-1.18-.24-2.33-1.63-2.76a5.8,5.8,0,0,0-6.73,1.91c-3.2,4.4-6,9.09-8.88,13.73-.66,1.07-1.37,2.38,0,3.56a4,4,0,0,0,4.19.65C360.11,335.73,369.45,323.42,369.62,319.85Zm39.48-36.27a44,44,0,0,0-15.78,6.56c-2.48,1.6-5.29,2.85-7,5.47-.86,1.32-1.56,2.85-.59,4.18,1.11,1.53,2.71.68,4.06,0C397.57,296.14,403.35,290,409.1,283.58ZM447.21,270c-2-1.73-3.91-1.09-5.51-.48-4,1.51-7.9,3.23-11.77,5-.89.42-2.76.45-2.36,2s1.88,1.53,3.29,1.15C436.73,276.11,442,273.27,447.21,270Z"/><path class="cls-1" d="M214,599.6a46.16,46.16,0,0,0-11.24-2c-26-6.15-49.71-17.51-72.62-30.84-20.87-13.46-40.66-28.28-58-46.16Q14.88,461.5,2.76,380.1C-8.72,302.34,16.08,236.18,68,178.94c13.69-15.09,29.47-27.82,46-39.6,2.57-1.82,5.2-3.17,8.32-1.74,3.33,1.53,3.25,4.6,3.26,7.69q0,38.66.16,77.31c0,8.79-3.76,16-8.79,22.77a177.94,177.94,0,0,0-31.42,68.74c-8.48,39.33-1.48,76.46,15.75,112.17a157.55,157.55,0,0,0,33.92,46.93,157,157,0,0,0,44.95,34.08,23,23,0,0,0,7.57,3.63,169,169,0,0,0,48.26,14c11.45,2.42,23.1,2.5,34.7,2.77,14.11.34,28.25.93,42.29-1.55,6-1.05,10.24,2.51,10.3,8.58q.25,28.92,0,57.84c-.05,5.84-3.38,9.27-9.69,10.08a189.13,189.13,0,0,1-20.84,1.76c-19.11.32-38.18-.68-57.24-2Z"/><path class="cls-2" d="M462.62,281.89C459.8,271.32,454,262.36,447.26,254c-9.76-14.33-22.72-25.57-35.9-36.5-15.1-12.54-30.52-24.68-48.6-32.91-6.38-2.91-9.32-8.42-9.34-15.29-.05-19.29.06-38.59.13-57.88a22.56,22.56,0,0,1,.36-3.47c1.22-8,4.06-10,12-7.71,12,3.42,23.53,8.19,34.94,13.24,53.1,23.49,95.66,59,124.94,109.61a41.63,41.63,0,0,0,7.48,9.94c4,3.76,7,4.06,11.57.89a54.12,54.12,0,0,0,9.41-8.87c17-19.11,30.92-40,36.32-65.51,1-4.54,1.46-9.18,2-13.79.52-4.16,1.84-7.47,6.79-7.69s6.52,3,7.28,7.14c5.09,27.23,19.18,49.25,39.34,67.76,14,12.87,36.32,14.07,50.83,1.81,21.27-18,36-39.86,38.2-68.64.3-4,1.39-7.61,6.53-7.85,4.86-.23,6.95,1.62,8.14,8,3.89,20.94,12.59,39.49,27.35,55a110.71,110.71,0,0,0,38,26c3.38,1.42,6.42,3,6.44,7.26,0,5.26-2.84,8.1-8.61,7.87-16.28-.67-32.56-1.55-48.83-2.33a50.36,50.36,0,0,0-5.49-.12c-5.45.35-7.94,2.83-8.8,8.34-.59,3.84.1,7.63.25,11.44.3,7.58-1.6,10.23-7.44,10.35s-8-2.51-7.82-10a104.28,104.28,0,0,0,0-10.46c-.63-7.36-3.22-9.64-10.49-9.71q-25.46-.25-50.91-.45c-17.47-.15-34.92.64-52.34,1.9-11.28.82-14.37,4.17-14,15.28a31.61,31.61,0,0,1-.86,8.4c-.73,3-2.35,5-5.7,5.35-3.55.33-5.59-1.39-6.93-4.47a18.55,18.55,0,0,1-1-9.78c.88-7.76-2.47-11.66-10.24-10.72-10.71,1.3-21.34,3.32-32,5.26-3.67.66-5.68,3.35-6,7.08-.44,6.23.14,12.45,3,18,7.09,13.51,10,28.11,11.7,43,3.39,29.12-.08,57.7-7.3,85.94-.41,1.6-.78,3.22-1.17,4.82a497.67,497.67,0,0,1-72.79-21.36c-2.46-.93-4.79-2.2-7.18-3.31,4.56-20.69,6.3-41.55,3.48-62.62C472.3,308.23,469.07,294.59,462.62,281.89ZM734,226.25a378.34,378.34,0,0,0-.17-43.25c-10.81,15.83-22.33,30.72-36.64,43.24-5.33,3.61-11,6.45-17.45,7.51,16.15.12,32.22.13,48.28.12C735.29,233.87,735.39,233.75,734,226.25ZM555.28,236.1c-2.67,1.79-5.29,3.62-7,7,12.68-1.33,24.85-2.66,37-3.86,6.91-.68,6.92-.58,6.44-7.61v-48C580.66,202.1,569.54,220.17,555.28,236.1Zm242.6-7.85C779.07,215.61,765,198.62,753,179.71c-.4-.63-.66-1.56-2-1.44-1.22,16-1.14,32-1,48-.66,7.79-.66,7.71,6.89,7.84,7.94.14,15.87.56,23.81.66,9.48.12,19,0,29.58,0C805.61,232.27,802.22,229.44,797.88,228.25ZM607.32,230.2c-.9,7.38-.83,7.46,6.2,6.88,19-1.55,38-3.28,57.14-2.8a15.83,15.83,0,0,0,1.92-.2c-7.49-1.33-13.83-5.19-20.69-7.51-18.85-12.16-30-31.22-43.5-49.49C607.2,195.53,606.78,212.85,607.32,230.2Z"/><path class="cls-2" d="M384.78,497.73c19,6.94,38.16,13.55,57.85,18.46,14,3.5,28.29,5.88,42.46,8.64-26.07,26.85-56.68,47-91,61.78a236.94,236.94,0,0,1-27.53,10.24c-9.12,2.65-12,.89-12.74-8.62-.58-7.44-.28-14.94-.32-22.42-.07-12.13,0-24.27-.17-36.4-.1-9,3.55-15.31,12.19-18.51C373.05,508.12,378.54,502.37,384.78,497.73Z"/><path class="cls-1" d="M284.51,91a181.57,181.57,0,0,1,37.28,1.51C332,94.07,335.7,98.79,335.58,109c-.21,16.95-.13,33.89-.18,50.84,0,8.64-3.22,11.46-11.71,10.26-23.45-3.34-46.91-4.55-70.47-.87-7.84,1.22-11.45-1.81-12.57-9.74-2.49-17.68-2.18-35.43-.74-53.14.81-9.89,5.36-13.64,15.24-14S274.73,91.46,284.51,91Z"/><path class="cls-2" d="M182.69,365.81c0,1.78.08,3.28,0,4.77-.35,5.43-3.09,8.49-8.57,8.2-11.77-.63-23.55-1.49-35.26-2.83-7.06-.8-10.51-7-9.64-15.5.77-7.5,4-10.58,11.83-10.31,10.79.38,21.52,1.82,32.33,2.24C180.14,352.64,184.63,356.65,182.69,365.81Z"/><path class="cls-2" d="M182.3,138.88c.89,11-1.45,14.22-12.12,17.79-10.84,3.62-21.8,7-32.39,11.33-4.45,1.84-6.62.87-7.91-3.62a39.33,39.33,0,0,1-1.7-9.26c-.18-4.73,2.14-8.13,6.54-10.21a296,296,0,0,1,39.83-15.54c6.6-2,7.92-.93,7.75,6C182.27,136.57,182.3,137.72,182.3,138.88Z"/><path class="cls-2" d="M182.34,74.23c.82,11.25-1.22,14.57-10.21,18.9-11.22,5.42-22.87,9.93-33.72,16.12-3.67,2.09-6.3.85-8.16-2.75-3.74-7.21-2.16-14.56,4.35-19.36,12.28-9.07,25.85-15.65,40.23-20.63,6.39-2.22,7.7-1.22,7.52,5.54C182.31,73.21,182.34,74.37,182.34,74.23Z"/><path class="cls-2" d="M182.33,203.49c.68,11.73-1.61,14.53-13.06,16.93-9.24,1.94-18.4,4.26-27.61,6.36-8.94,2-10.95.71-12.58-8.11-1.78-9.63.39-13.37,9.92-16.08q15.3-4.32,30.74-8.14C181.3,191.59,181.66,192,182.33,203.49Z"/><path class="cls-2" d="M181.92,103.71c.13,1.28.44,3.72.64,6.17.5,6.21-2.24,10.79-7.78,13.2-11.86,5.15-23.86,10-35.84,14.85-4,1.63-7.11.51-8.71-3.85-2.63-7.18-3.23-15.1,6.84-19.91,12.58-6,25-12.33,38.3-16.6C181.18,95.71,182.31,96.62,181.92,103.71Z"/><path class="cls-2" d="M128.64,186.56c-.29-5.46,2.27-9.08,7.09-11.48,13.06-6.5,27-10.27,41.15-13.29,3.53-.75,5.41.86,5.66,4.41.22,3.31.51,6.61.56,9.93.08,5.43-2.45,9.5-7.61,11.06-12.87,3.88-25.84,7.44-38.81,11-2.94.81-5.23-.44-6.37-3.38A20.31,20.31,0,0,1,128.64,186.56Z"/><path class="cls-2" d="M181.77,38.46c.21,1.9.57,4.51.79,7.13.55,6.39-2.53,10.87-7.89,13.8C163,65.75,151.27,71.92,139.6,78.22c-3.86,2.09-6.51,1.23-8.54-2.68-4.54-8.7-3.09-14.61,4.95-19.91,12.62-8.32,25.47-16.23,39.38-22.26C181,30.93,182.17,31.75,181.77,38.46Z"/><path class="cls-2" d="M198,378.91c-4.79.47-10,.67-12-4.66-2.31-6.17-2.64-12.8,1.16-18.67,2-3.05,5.71-3.29,9-3.3,9.49,0,18.91-.71,28.35-1.67,7.77-.79,11.42,2.81,11.54,10.68,0,1.16,0,2.32,0,3.49,0,9-2.84,11.82-11.78,12.29C215.53,377.53,206.76,378.28,198,378.91Z"/><path class="cls-2" d="M182.43,268.42c.43,11.64-1.8,13.92-13.2,15-8.92.83-17.8,2.18-26.68,3.41-8,1.1-12.34-.78-12.79-6.45-.83-10.64-1.41-16.5,9.47-18.2,11.16-1.76,22.33-3.3,33.57-4.45,8.18-.83,9.58.36,9.63,8.72Z"/><path class="cls-2" d="M156.84,345.68c-5.32,0-10.64.1-16,0-8.28-.2-11.94-4.19-11.84-12.64.1-8.17,3.77-11.91,11.87-12,10.47-.17,20.94-.4,31.4-.41,7.7,0,10.1,2.47,10.39,10.1.06,1.83.07,3.66,0,5.48-.25,7-2.8,9.43-9.91,9.52C167.48,345.73,162.16,345.68,156.84,345.68Z"/><path class="cls-2" d="M182.42,10.77c1.17,8.73-2.57,14.55-10.42,18.81C161.36,35.35,151.18,42,140.77,48.14c-7.38,4.39-10.75,2.55-11-6-.21-7.75,2.81-13.7,9.53-17.93C150.83,17,162.2,9.55,173.6,2.13c2.08-1.35,4.15-2.12,6.51-.93s2.74,3.53,2.55,6C182.57,8.32,182.51,9.48,182.42,10.77Z"/><path class="cls-2" d="M143.72,380.76c10.4,1.13,20.82,2.16,31.2,3.44a7.74,7.74,0,0,1,6.73,5.27,27.89,27.89,0,0,1,.31,16.18c-1.11,4.13-5,4.66-8.6,4.24-8.08-.95-16.12-2.21-24.17-3.41a92.73,92.73,0,0,1-10.77-2c-7.44-2-10.1-6.86-8.86-15.39.84-5.83,3.83-7.91,11.64-8.11.83,0,1.66,0,2.5,0Z"/><path class="cls-2" d="M129.63,448.56c.09-8.28,2.25-10.24,10.26-8.63,11.7,2.36,23.35,4.91,35,7.51,5.7,1.28,7.45,3.59,7.69,9.32.11,2.65.34,5.28.48,7.93.34,6.57-2.53,9.22-9,8.23a49.26,49.26,0,0,1-5.29-1.32c-9-2.4-17.91-4.85-26.87-7.22C132.37,461.87,129.52,458.24,129.63,448.56Z"/><path class="cls-2" d="M184.72,269.21c0-10.5,2.23-12.65,12.66-12,9.12.6,18.23,1.3,27.34,2,7.53.56,10.66,3.66,11.33,11.2.08,1,.06,2,.06,3,0,9.76-2.49,12.17-12.21,11.58-8.62-.53-17.23-1.36-25.85-1.86C187,282.49,184.71,280.17,184.72,269.21Z"/><path class="cls-2" d="M182.73,652c0,12.84-2.64,14.38-12.83,8.69-11.44-6.39-22.43-13.53-33.37-20.72-6.61-4.35-9.26-14.68-5.74-21.75a3.74,3.74,0,0,1,5-2.13,37.24,37.24,0,0,1,6.24,3c10.84,6.43,21.48,13.22,32.51,19.3C180.7,641.79,183.6,646.28,182.73,652Z"/><path class="cls-2" d="M130.69,304.53a52.51,52.51,0,0,1,0-5.47c.41-3.95,2.61-6.59,6.63-6.85,10.58-.7,21.07-2.71,31.71-2.6,14.24.15,16.2,6.5,12.94,19.37-.81,3.19-3.27,4.91-6.6,5.16-11.74.87-23.47,1.89-35.23,2.53C132.25,317.11,130.52,314.68,130.69,304.53Z"/><path class="cls-2" d="M182.63,429.78c-.06,10.87-3.09,13.24-13.76,10.72-9-2.15-18.09-4.25-27.28-5.75-10.2-1.68-14.4-8.52-11.7-18.51,1.22-4.5,4.13-6.86,8.81-6.15,11.81,1.79,23.64,3.54,35.37,5.81C181,417.24,182.67,420.47,182.63,429.78Z"/><path class="cls-2" d="M236.11,90.75c0,12.51-1.39,13.56-12.39,9.86-9.45-3.16-18.94-6.23-28.27-9.7-9.54-3.55-13.4-13.11-9.39-21.87,1.73-3.78,4.47-5.49,8.38-4.14,12.09,4.16,24.2,8.3,36.11,12.95C236.73,80.27,235.89,86.37,236.11,90.75Z"/><path class="cls-2" d="M182.72,622.56c-.29,11.54-2.55,12.91-12.56,7.26-10.85-6.12-21.49-12.64-32.41-18.63-7.05-3.87-8.64-10.31-8.74-17.25-.08-6.14,4.9-8.68,10.4-5.75q18,9.59,36,19.36C181.47,610.87,182.93,614.11,182.72,622.56Z"/><path class="cls-2" d="M182.43,237.21c.63,11.33-1.48,13.73-13.09,15.27-9.37,1.24-18.71,2.73-28.09,4-7.09.93-9.8-1.11-11.16-8-1.7-8.56.2-12.51,7.09-14.34a315.56,315.56,0,0,1,32.07-6.92C181.76,225.16,181.76,225.16,182.43,237.21Z"/><path class="cls-2" d="M209.94,345.85c-4.66,0-9.31,0-14,0-7.25.07-10.83-3.21-11.25-10.36-.68-11.68,2.41-14.79,14.09-15,8.64-.17,17.25.62,25.91.14,7.78-.42,11.3,3.44,11.63,11.62.34,8.74-3.12,13.07-10.95,13.49-2.65.15-5.31,0-8,0-2.5,0-5,0-7.49,0Z"/><path class="cls-2" d="M236.11,181.56c0,11.17-3.48,13.86-14.41,11.31-8.23-1.92-16.47-3.78-24.75-5.48-9.65-2-15.65-14.22-11.15-23,1.09-2.15,2.91-3,5.27-3.1,4.21-.19,8.21.83,12.25,1.79,7.26,1.71,14.54,3.31,21.82,4.91C234,169.9,236.1,172.43,236.11,181.56Z"/><path class="cls-2" d="M186.41,397.63c.07-10.86,2.12-13,12.93-13.81,8.63-.64,17.25-1.37,25.86-2.13,7.61-.68,10.12,1.37,10.48,8.75.69,14.23.69,14.28-13.57,16.73-6.88,1.19-13.81,2.09-20.69,3.23C190.18,412.26,186.33,409,186.41,397.63Z"/><path class="cls-2" d="M237.11,123c0,8.93-2.28,10.68-11,8.22-10.23-2.91-20.45-5.83-30.64-8.89-8.14-2.45-12.94-16.54-8.2-23.65,1.17-1.75,2.8-2.1,4.74-2.13,5-.08,9.42,1.89,14,3.32,6.65,2.09,13.31,4.2,19.84,6.64C235.07,109.92,237.1,113.12,237.11,123Z"/><path class="cls-2" d="M237.07,151.83c.14,9.56-2.88,12-12.1,9.86-10.18-2.37-20.35-4.82-30.29-8.1-7.62-2.52-10.08-6-8.85-13.73.61-3.85-.13-8.51,3.11-11.26,3.68-3.12,7.09.93,10.62,1.73,8.42,1.9,16.76,4.12,25.16,6.09C233.49,138.46,236.94,142.69,237.07,151.83Z"/><path class="cls-2" d="M186.89,462.59c-1-10.88,2-14.21,12.89-15.62,8.88-1.16,17.68-3,26.53-4.31,7.06-1.09,8.4,0,9.41,7.07,2.15,15.12,2,15.35-12.69,18.72a278.19,278.19,0,0,1-28,4.75c-7,.87-8.3-.17-8.18-7.14C186.91,464.91,186.89,463.75,186.89,462.59Z"/><path class="cls-2" d="M229.56,473.94c4.08-.48,6,1.39,6.16,5.92.61,16.27.35,16.69-15.85,20.36-8.25,1.86-16.47,3.88-24.72,5.75-5.31,1.21-7,.18-8.2-5-.49-2.09-.9-4.22-1.18-6.35-1-7.19,1.15-10.8,8-13.59C205.1,476.39,217.14,475.05,229.56,473.94Z"/><path class="cls-2" d="M200.43,290.13c7.44,0,14.9-.33,22.33.07,15.3.83,16,12.9,12,22.48a5.89,5.89,0,0,1-6.55,3.55,335.65,335.65,0,0,0-34.72-2.17c-4.21-.08-7-2.67-8.08-6.88a24.13,24.13,0,0,1-.76-7.88c.46-7.06,3.72-10.08,10.81-10.11h5Z"/><path class="cls-2" d="M186.42,43.37c0-2.28,0-3.44,0-4.6.19-6.35,3.05-8.54,9.05-6.23q17.16,6.62,34.06,13.86c6.16,2.65,9.38,16.79,5.42,22.31-2,2.81-4.66,3.46-7.88,2.17C216.3,66.59,205.48,62.45,194.76,58,187.77,55.14,185.45,49.5,186.42,43.37Z"/><path class="cls-2" d="M223.31,254.64c-9-1.14-18.14-1.86-27.08-3.53-10.43-2-14.7-14.75-8.17-23.24a6.76,6.76,0,0,1,6.65-2.52c10.85,1.37,21.7,2.69,32.51,4.33a9.36,9.36,0,0,1,8.27,7.58c1.11,5.11,1.78,10.37-1.82,14.74C231.05,255.19,227,254.13,223.31,254.64Z"/><path class="cls-2" d="M236.16,213.92c0,9.5-1.42,10.78-10.78,9.29-10-1.59-20-3.17-30-4.89-7.1-1.22-10-4.56-9.28-11.7,1.25-11.84-1.72-16.79,15.64-12.62,6.94,1.66,14,2.89,21,4.17C233.94,200.21,236.13,202.71,236.16,213.92Z"/><path class="cls-2" d="M236.5,639.48a9.63,9.63,0,0,1-5.84,9.47c-11.5,5.22-23,10.37-34.66,15.26-4.72,2-7,.58-8.78-4.24-3.66-10.07-1.76-15,7.6-19.94,10.3-5.44,20.78-10.44,31.93-13.91,7-2.2,8.59-1.07,8.94,6.28C235.81,634.7,236.21,637,236.5,639.48Z"/><path class="cls-2" d="M186.41,429.4c-.11-9.82,2.43-12.45,12.31-13.54,8.07-.9,16.09-2.23,24.15-3.26,8.29-1.05,12.32,1.34,13.15,7.58,1.5,11.3-1,15.64-9.88,17-8.51,1.34-17,2.72-25.53,4.06C189.07,443.1,186.54,441,186.41,429.4Z"/><path class="cls-2" d="M236.36,30.68c0,.5,0,1,0,1.5-.13,8.63-2.86,10.61-10.79,7.31q-14.94-6.23-29.66-13c-8.23-3.82-12.4-14.23-9.33-22.3C187.91.68,190.13-1,193.89.67c12.4,5.62,24.84,11.17,37.14,17C236.45,20.26,236.28,25.64,236.36,30.68Z"/><path class="cls-2" d="M214,599.6l21.59,2.8c1.65,11.61.27,14-10.59,18.55-10.06,4.26-20.07,8.63-30.11,12.95-4.35,1.87-6.43,1.06-8-3.37a49.93,49.93,0,0,1-1.88-6.69c-1.41-6.72.67-11.22,7-14.23C199.19,606.11,206.62,602.93,214,599.6Z"/><path class="cls-2" d="M180.23,507.29a157,157,0,0,1-44.95-34.08c.85-2.36,2.05-4.57,5-3.27,10.12,4.43,21.18,5.26,31.6,8.54,9,2.82,15.33,18.63,10.45,26.76A11.74,11.74,0,0,1,180.23,507.29Z"/><path class="cls-2" d="M130.13,566.74c22.91,13.33,46.66,24.69,72.62,30.84-1.44.78-2.85,1.66-4.35,2.34-7.57,3.44-9.55,2.82-13.79-4.51-1.85,1.81-2.24,5-5.37,5.4-3.37.39-6.08-1.22-8.9-2.65-10.67-5.38-21.39-10.68-32.06-16.08C131.37,578.58,129.32,574.61,130.13,566.74Z"/><path class="cls-2" d="M236.06,524.89a169,169,0,0,1-48.26-14c12.86-.18,25.1-3.89,37.51-6.6,8.33-1.82,10.45-.38,10.81,8.19C236.29,516.63,236.09,520.76,236.06,524.89Z"/><path class="cls-1" d="M607.32,230.2c14.88-.94,29.75-1.89,44.57-3.63,6.86,2.32,13.2,6.18,20.69,7.51a15.83,15.83,0,0,1-1.92.2c-19.12-.48-38.13,1.25-57.14,2.8C606.49,237.66,606.42,237.58,607.32,230.2Z"/><path class="cls-1" d="M750,226.32l47.84,1.93c4.34,1.19,7.73,4,12.44,6.6-10.61,0-20.1.09-29.58,0-7.94-.1-15.87-.52-23.81-.66C749.38,234,749.38,234.11,750,226.32Z"/><path class="cls-1" d="M697.15,226.24H734c1.43,7.5,1.33,7.62-6,7.62-16.06,0-32.13,0-48.28-.12C686.14,232.69,691.82,229.85,697.15,226.24Z"/><path class="cls-1" d="M555.28,236.1l36.47-4.48c.48,7,.47,6.93-6.44,7.61-12.18,1.2-24.35,2.53-37,3.86C550,239.72,552.61,237.89,555.28,236.1Z"/></g></g></svg>