<svg width="54" height="54" viewBox="0 0 54 54" fill="none" xmlns="http://www.w3.org/2000/svg">
<path d="M3.375 37.125C3.375 36.2299 3.73058 35.3715 4.36351 34.7385C4.99645 34.1056 5.85489 33.75 6.75 33.75H13.5C14.3951 33.75 15.2535 34.1056 15.8865 34.7385C16.5194 35.3715 16.875 36.2299 16.875 37.125V47.25C16.875 48.1451 16.5194 49.0035 15.8865 49.6365C15.2535 50.2694 14.3951 50.625 13.5 50.625H6.75C5.85489 50.625 4.99645 50.2694 4.36351 49.6365C3.73058 49.0035 3.375 48.1451 3.375 47.25V37.125ZM20.25 23.625C20.25 22.7299 20.6056 21.8715 21.2385 21.2385C21.8715 20.6056 22.7299 20.25 23.625 20.25H30.375C31.2701 20.25 32.1285 20.6056 32.7615 21.2385C33.3944 21.8715 33.75 22.7299 33.75 23.625V47.25C33.75 48.1451 33.3944 49.0035 32.7615 49.6365C32.1285 50.2694 31.2701 50.625 30.375 50.625H23.625C22.7299 50.625 21.8715 50.2694 21.2385 49.6365C20.6056 49.0035 20.25 48.1451 20.25 47.25V23.625ZM37.125 6.75C37.125 5.85489 37.4806 4.99645 38.1135 4.36351C38.7465 3.73058 39.6049 3.375 40.5 3.375H47.25C48.1451 3.375 49.0035 3.73058 49.6365 4.36351C50.2694 4.99645 50.625 5.85489 50.625 6.75V47.25C50.625 48.1451 50.2694 49.0035 49.6365 49.6365C49.0035 50.2694 48.1451 50.625 47.25 50.625H40.5C39.6049 50.625 38.7465 50.2694 38.1135 49.6365C37.4806 49.0035 37.125 48.1451 37.125 47.25V6.75Z" fill="#0970B2"/>
</svg>
