<svg width="49" height="50" viewBox="0 0 49 50" fill="none" xmlns="http://www.w3.org/2000/svg">
<path d="M41.3438 17.1875H30.625V6.25C30.625 5.0068 30.141 3.81451 29.2795 2.93544C28.418 2.05636 27.2496 1.5625 26.0312 1.5625H7.65625C6.43791 1.5625 5.26947 2.05636 4.40798 2.93544C3.54648 3.81451 3.0625 5.0068 3.0625 6.25V46.875C3.0625 47.2894 3.22383 47.6868 3.51099 47.9799C3.79816 48.2729 4.18764 48.4375 4.59375 48.4375H14.5469C14.7499 48.4375 14.9447 48.3552 15.0883 48.2087C15.2318 48.0622 15.3125 47.8634 15.3125 47.6562V40.6689C15.3125 39.8281 15.9461 39.1064 16.7701 39.0645C16.9771 39.0543 17.184 39.0871 17.3783 39.1609C17.5725 39.2348 17.75 39.3481 17.9001 39.494C18.0501 39.6399 18.1696 39.8154 18.2512 40.0098C18.3329 40.2042 18.375 40.4135 18.375 40.625V47.6562C18.375 47.8634 18.4557 48.0622 18.5992 48.2087C18.7428 48.3552 18.9376 48.4375 19.1406 48.4375H44.4062C44.8124 48.4375 45.2018 48.2729 45.489 47.9799C45.7762 47.6868 45.9375 47.2894 45.9375 46.875V21.875C45.9375 20.6318 45.4535 19.4395 44.592 18.5604C43.7305 17.6814 42.5621 17.1875 41.3438 17.1875ZM9.38656 42.1748C9.06943 42.2171 8.74727 42.1571 8.4653 42.003C8.18333 41.849 7.9557 41.6087 7.81436 41.316C7.67303 41.0232 7.62508 40.6926 7.67724 40.3706C7.72941 40.0487 7.87908 39.7514 8.10523 39.5206C8.33139 39.2899 8.62268 39.1372 8.93823 39.0839C9.25378 39.0307 9.57775 39.0796 9.86466 39.2238C10.1516 39.3681 10.387 39.6003 10.538 39.8881C10.6889 40.1758 10.7478 40.5045 10.7063 40.8281C10.6625 41.1696 10.5094 41.4868 10.2707 41.7304C10.0321 41.9739 9.72124 42.1301 9.38656 42.1748ZM9.38656 34.3623C9.06943 34.4046 8.74727 34.3446 8.4653 34.1905C8.18333 34.0365 7.9557 33.7962 7.81436 33.5035C7.67303 33.2107 7.62508 32.8801 7.67724 32.5581C7.72941 32.2362 7.87908 31.9389 8.10523 31.7081C8.33139 31.4774 8.62268 31.3247 8.93823 31.2714C9.25378 31.2182 9.57775 31.2671 9.86466 31.4113C10.1516 31.5556 10.387 31.7878 10.538 32.0756C10.6889 32.3633 10.7478 32.692 10.7063 33.0156C10.6625 33.3571 10.5094 33.6743 10.2707 33.9179C10.0321 34.1614 9.72124 34.3176 9.38656 34.3623ZM9.38656 26.5498C9.06943 26.5921 8.74727 26.5321 8.4653 26.378C8.18333 26.224 7.9557 25.9837 7.81436 25.691C7.67303 25.3982 7.62508 25.0676 7.67724 24.7456C7.72941 24.4237 7.87908 24.1264 8.10523 23.8956C8.33139 23.6649 8.62268 23.5122 8.93823 23.4589C9.25378 23.4057 9.57775 23.4546 9.86466 23.5988C10.1516 23.7431 10.387 23.9753 10.538 24.2631C10.6889 24.5508 10.7478 24.8795 10.7063 25.2031C10.6625 25.5446 10.5094 25.8618 10.2707 26.1054C10.0321 26.3489 9.72124 26.5051 9.38656 26.5498ZM9.38656 18.7373C9.06943 18.7796 8.74727 18.7196 8.4653 18.5655C8.18333 18.4115 7.9557 18.1712 7.81436 17.8785C7.67303 17.5857 7.62508 17.2551 7.67724 16.9331C7.72941 16.6112 7.87908 16.3139 8.10523 16.0831C8.33139 15.8524 8.62268 15.6997 8.93823 15.6464C9.25378 15.5932 9.57775 15.6421 9.86466 15.7863C10.1516 15.9306 10.387 16.1628 10.538 16.4506C10.6889 16.7383 10.7478 17.067 10.7063 17.3906C10.6625 17.7321 10.5094 18.0493 10.2707 18.2929C10.0321 18.5364 9.72124 18.6926 9.38656 18.7373ZM9.38656 10.9248C9.06943 10.9671 8.74727 10.9071 8.4653 10.753C8.18333 10.599 7.9557 10.3587 7.81436 10.066C7.67303 9.77321 7.62508 9.44264 7.67724 9.12065C7.72941 8.79866 7.87908 8.50142 8.10523 8.27064C8.33139 8.03987 8.62268 7.88715 8.93823 7.83392C9.25378 7.78069 9.57775 7.82962 9.86466 7.97384C10.1516 8.11806 10.387 8.35033 10.538 8.63806C10.6889 8.92579 10.7478 9.25452 10.7063 9.57812C10.6625 9.91963 10.5094 10.2368 10.2707 10.4804C10.0321 10.7239 9.72124 10.8801 9.38656 10.9248ZM17.0428 34.3623C16.7257 34.4046 16.4035 34.3446 16.1215 34.1905C15.8396 34.0365 15.612 33.7962 15.4706 33.5035C15.3293 33.2107 15.2813 32.8801 15.3335 32.5581C15.3857 32.2362 15.5353 31.9389 15.7615 31.7081C15.9876 31.4774 16.2789 31.3247 16.5945 31.2714C16.91 31.2182 17.234 31.2671 17.5209 31.4113C17.8078 31.5556 18.0433 31.7878 18.1942 32.0756C18.3452 32.3633 18.404 32.692 18.3626 33.0156C18.3188 33.3571 18.1657 33.6743 17.927 33.9179C17.6883 34.1614 17.3775 34.3176 17.0428 34.3623ZM17.0428 26.5498C16.7257 26.5921 16.4035 26.5321 16.1215 26.378C15.8396 26.224 15.612 25.9837 15.4706 25.691C15.3293 25.3982 15.2813 25.0676 15.3335 24.7456C15.3857 24.4237 15.5353 24.1264 15.7615 23.8956C15.9876 23.6649 16.2789 23.5122 16.5945 23.4589C16.91 23.4057 17.234 23.4546 17.5209 23.5988C17.8078 23.7431 18.0433 23.9753 18.1942 24.2631C18.3452 24.5508 18.404 24.8795 18.3626 25.2031C18.3188 25.5446 18.1657 25.8618 17.927 26.1054C17.6883 26.3489 17.3775 26.5051 17.0428 26.5498ZM17.0428 18.7373C16.7257 18.7796 16.4035 18.7196 16.1215 18.5655C15.8396 18.4115 15.612 18.1712 15.4706 17.8785C15.3293 17.5857 15.2813 17.2551 15.3335 16.9331C15.3857 16.6112 15.5353 16.3139 15.7615 16.0831C15.9876 15.8524 16.2789 15.6997 16.5945 15.6464C16.91 15.5932 17.234 15.6421 17.5209 15.7863C17.8078 15.9306 18.0433 16.1628 18.1942 16.4506C18.3452 16.7383 18.404 17.067 18.3626 17.3906C18.3188 17.7321 18.1657 18.0493 17.927 18.2929C17.6883 18.5364 17.3775 18.6926 17.0428 18.7373ZM17.0428 10.9248C16.7257 10.9671 16.4035 10.9071 16.1215 10.753C15.8396 10.599 15.612 10.3587 15.4706 10.066C15.3293 9.77321 15.2813 9.44264 15.3335 9.12065C15.3857 8.79866 15.5353 8.50142 15.7615 8.27064C15.9876 8.03987 16.2789 7.88715 16.5945 7.83392C16.91 7.78069 17.234 7.82962 17.5209 7.97384C17.8078 8.11806 18.0433 8.35033 18.1942 8.63806C18.3452 8.92579 18.404 9.25452 18.3626 9.57812C18.3188 9.91963 18.1657 10.2368 17.927 10.4804C17.6883 10.7239 17.3775 10.8801 17.0428 10.9248ZM24.6991 42.1748C24.3819 42.2171 24.0598 42.1571 23.7778 42.003C23.4958 41.849 23.2682 41.6087 23.1269 41.316C22.9855 41.0232 22.9376 40.6926 22.9897 40.3706C23.0419 40.0487 23.1916 39.7514 23.4177 39.5206C23.6439 39.2899 23.9352 39.1372 24.2507 39.0839C24.5663 39.0307 24.8902 39.0796 25.1772 39.2238C25.4641 39.3681 25.6995 39.6003 25.8505 39.8881C26.0014 40.1758 26.0603 40.5045 26.0188 40.8281C25.975 41.1696 25.8219 41.4868 25.5832 41.7304C25.3446 41.9739 25.0337 42.1301 24.6991 42.1748ZM24.6991 34.3623C24.3819 34.4046 24.0598 34.3446 23.7778 34.1905C23.4958 34.0365 23.2682 33.7962 23.1269 33.5035C22.9855 33.2107 22.9376 32.8801 22.9897 32.5581C23.0419 32.2362 23.1916 31.9389 23.4177 31.7081C23.6439 31.4774 23.9352 31.3247 24.2507 31.2714C24.5663 31.2182 24.8902 31.2671 25.1772 31.4113C25.4641 31.5556 25.6995 31.7878 25.8505 32.0756C26.0014 32.3633 26.0603 32.692 26.0188 33.0156C25.975 33.3571 25.8219 33.6743 25.5832 33.9179C25.3446 34.1614 25.0337 34.3176 24.6991 34.3623ZM24.6991 26.5498C24.3819 26.5921 24.0598 26.5321 23.7778 26.378C23.4958 26.224 23.2682 25.9837 23.1269 25.691C22.9855 25.3982 22.9376 25.0676 22.9897 24.7456C23.0419 24.4237 23.1916 24.1264 23.4177 23.8956C23.6439 23.6649 23.9352 23.5122 24.2507 23.4589C24.5663 23.4057 24.8902 23.4546 25.1772 23.5988C25.4641 23.7431 25.6995 23.9753 25.8505 24.2631C26.0014 24.5508 26.0603 24.8795 26.0188 25.2031C25.975 25.5446 25.8219 25.8618 25.5832 26.1054C25.3446 26.3489 25.0337 26.5051 24.6991 26.5498ZM24.6991 18.7373C24.3819 18.7796 24.0598 18.7196 23.7778 18.5655C23.4958 18.4115 23.2682 18.1712 23.1269 17.8785C22.9855 17.5857 22.9376 17.2551 22.9897 16.9331C23.0419 16.6112 23.1916 16.3139 23.4177 16.0831C23.6439 15.8524 23.9352 15.6997 24.2507 15.6464C24.5663 15.5932 24.8902 15.6421 25.1772 15.7863C25.4641 15.9306 25.6995 16.1628 25.8505 16.4506C26.0014 16.7383 26.0603 17.067 26.0188 17.3906C25.975 17.7321 25.8219 18.0493 25.5832 18.2929C25.3446 18.5364 25.0337 18.6926 24.6991 18.7373ZM24.6991 10.9248C24.3819 10.9671 24.0598 10.9071 23.7778 10.753C23.4958 10.599 23.2682 10.3587 23.1269 10.066C22.9855 9.77321 22.9376 9.44264 22.9897 9.12065C23.0419 8.79866 23.1916 8.50142 23.4177 8.27064C23.6439 8.03987 23.9352 7.88715 24.2507 7.83392C24.5663 7.78069 24.8902 7.82962 25.1772 7.97384C25.4641 8.11806 25.6995 8.35033 25.8505 8.63806C26.0014 8.92579 26.0603 9.25452 26.0188 9.57812C25.975 9.91963 25.8219 10.2368 25.5832 10.4804C25.3446 10.7239 25.0337 10.8801 24.6991 10.9248ZM42.4922 45.3125H30.625V20.3125H41.3438C41.7499 20.3125 42.1393 20.4771 42.4265 20.7701C42.7137 21.0632 42.875 21.4606 42.875 21.875V44.9219C42.875 45.0255 42.8347 45.1248 42.7629 45.1981C42.6911 45.2713 42.5937 45.3125 42.4922 45.3125Z" fill="#0970B2"/>
<path d="M38.2813 39.0625C37.9784 39.0625 37.6823 39.1541 37.4305 39.3258C37.1787 39.4975 36.9825 39.7415 36.8666 40.0271C36.7507 40.3126 36.7203 40.6267 36.7794 40.9298C36.8385 41.2329 36.9843 41.5113 37.1985 41.7299C37.4126 41.9484 37.6855 42.0972 37.9825 42.1575C38.2796 42.2178 38.5874 42.1868 38.8672 42.0686C39.147 41.9503 39.3862 41.75 39.5544 41.4931C39.7227 41.2361 39.8125 40.934 39.8125 40.625C39.8125 40.2106 39.6512 39.8132 39.364 39.5201C39.0768 39.2271 38.6874 39.0625 38.2813 39.0625ZM38.2813 31.25C37.9784 31.25 37.6823 31.3416 37.4305 31.5133C37.1787 31.685 36.9825 31.929 36.8666 32.2146C36.7507 32.5001 36.7203 32.8142 36.7794 33.1173C36.8385 33.4204 36.9843 33.6988 37.1985 33.9174C37.4126 34.1359 37.6855 34.2847 37.9825 34.345C38.2796 34.4053 38.5874 34.3743 38.8672 34.2561C39.147 34.1378 39.3862 33.9375 39.5544 33.6806C39.7227 33.4236 39.8125 33.1215 39.8125 32.8125C39.8125 32.3981 39.6512 32.0007 39.364 31.7076C39.0768 31.4146 38.6874 31.25 38.2813 31.25ZM38.2813 23.4375C37.9784 23.4375 37.6823 23.5291 37.4305 23.7008C37.1787 23.8725 36.9825 24.1165 36.8666 24.4021C36.7507 24.6876 36.7203 25.0017 36.7794 25.3048C36.8385 25.6079 36.9843 25.8863 37.1985 26.1049C37.4126 26.3234 37.6855 26.4722 37.9825 26.5325C38.2796 26.5928 38.5874 26.5618 38.8672 26.4436C39.147 26.3253 39.3862 26.125 39.5544 25.8681C39.7227 25.6111 39.8125 25.309 39.8125 25C39.8125 24.5856 39.6512 24.1882 39.364 23.8951C39.0768 23.6021 38.6874 23.4375 38.2813 23.4375ZM32.1563 39.0625C31.8534 39.0625 31.5573 39.1541 31.3055 39.3258C31.0537 39.4975 30.8575 39.7415 30.7416 40.0271C30.6257 40.3126 30.5953 40.6267 30.6544 40.9298C30.7135 41.2329 30.8593 41.5113 31.0735 41.7299C31.2876 41.9484 31.5605 42.0972 31.8575 42.1575C32.1546 42.2178 32.4624 42.1868 32.7422 42.0686C33.022 41.9503 33.2612 41.75 33.4294 41.4931C33.5977 41.2361 33.6875 40.934 33.6875 40.625C33.6875 40.2106 33.5262 39.8132 33.239 39.5201C32.9518 39.2271 32.5624 39.0625 32.1563 39.0625ZM32.1563 31.25C31.8534 31.25 31.5573 31.3416 31.3055 31.5133C31.0537 31.685 30.8575 31.929 30.7416 32.2146C30.6257 32.5001 30.5953 32.8142 30.6544 33.1173C30.7135 33.4204 30.8593 33.6988 31.0735 33.9174C31.2876 34.1359 31.5605 34.2847 31.8575 34.345C32.1546 34.4053 32.4624 34.3743 32.7422 34.2561C33.022 34.1378 33.2612 33.9375 33.4294 33.6806C33.5977 33.4236 33.6875 33.1215 33.6875 32.8125C33.6875 32.3981 33.5262 32.0007 33.239 31.7076C32.9518 31.4146 32.5624 31.25 32.1563 31.25ZM32.1563 23.4375C31.8534 23.4375 31.5573 23.5291 31.3055 23.7008C31.0537 23.8725 30.8575 24.1165 30.7416 24.4021C30.6257 24.6876 30.5953 25.0017 30.6544 25.3048C30.7135 25.6079 30.8593 25.8863 31.0735 26.1049C31.2876 26.3234 31.5605 26.4722 31.8575 26.5325C32.1546 26.5928 32.4624 26.5618 32.7422 26.4436C33.022 26.3253 33.2612 26.125 33.4294 25.8681C33.5977 25.6111 33.6875 25.309 33.6875 25C33.6875 24.5856 33.5262 24.1882 33.239 23.8951C32.9518 23.6021 32.5624 23.4375 32.1563 23.4375Z" fill="#0970B2"/>
</svg>
