<svg width="50" height="50" viewBox="0 0 50 50" fill="none" xmlns="http://www.w3.org/2000/svg">
<g clip-path="url(#clip0_216_147)">
<path d="M6.00002 18.7506C5.99992 15.6544 6.76657 12.6063 8.23152 9.87861C9.69646 7.15089 11.8141 4.8284 14.3953 3.11852C16.9766 1.40864 19.9411 0.364592 23.0242 0.0796012C26.1072 -0.205389 29.2129 0.277548 32.0639 1.48529C34.9148 2.69303 37.4223 4.58799 39.3624 7.00095C41.3026 9.41392 42.6149 12.2698 43.1824 15.3136C43.7499 18.3573 43.5548 21.4942 42.6145 24.4442C41.6742 27.3942 40.018 30.0654 37.7938 32.2193C37.1594 32.8318 36.6719 33.4693 36.3781 34.1537L33.9969 39.6818C33.8761 39.962 33.6759 40.2007 33.421 40.3684C33.1661 40.5361 32.8676 40.6255 32.5625 40.6256H16.9375C16.6319 40.6261 16.3328 40.537 16.0773 40.3693C15.8218 40.2015 15.6211 39.9625 15.5 39.6818L13.1219 34.1506C12.7789 33.4216 12.2982 32.7658 11.7063 32.2193C9.89827 30.4734 8.46103 28.3807 7.48056 26.0665C6.50009 23.7522 5.99653 21.264 6.00002 18.7506ZM15.375 45.3131C15.375 44.8987 15.5396 44.5013 15.8327 44.2082C16.1257 43.9152 16.5231 43.7506 16.9375 43.7506H32.5625C32.9769 43.7506 33.3743 43.9152 33.6674 44.2082C33.9604 44.5013 34.125 44.8987 34.125 45.3131C34.125 45.7275 33.9604 46.1249 33.6674 46.4179C33.3743 46.711 32.9769 46.8756 32.5625 46.8756L31.8625 48.2725C31.6032 48.7915 31.2045 49.228 30.711 49.5332C30.2176 49.8385 29.649 50.0003 29.0688 50.0006H20.4313C19.8511 50.0003 19.2824 49.8385 18.789 49.5332C18.2956 49.228 17.8969 48.7915 17.6375 48.2725L16.9375 46.8756C16.5231 46.8756 16.1257 46.711 15.8327 46.4179C15.5396 46.1249 15.375 45.7275 15.375 45.3131Z" fill="#0971B2"/>
</g>
<defs>
<clipPath id="clip0_216_147">
<rect width="50" height="50" fill="white"/>
</clipPath>
</defs>
</svg>
